<svg id="Layer_1" data-name="Layer 1" xmlns="http://www.w3.org/2000/svg" viewBox="0 0 512 512"><defs><style>.cls-1{fill:#3eb38a;}.cls-2{fill:#141f38;}.cls-3{fill:#f9c882;}</style></defs><title>chat-bubble-smile-filled</title><path class="cls-1" d="M334.77,151H72.21A65.64,65.64,0,0,0,6.56,216.62V347.9a65.66,65.66,0,0,0,52.51,64.32v53.83l52.51-52.51H334.77a65.64,65.64,0,0,0,65.64-65.64V216.62A65.64,65.64,0,0,0,334.77,151Z"/><path class="cls-2" d="M59.08,472.62a6.56,6.56,0,0,1-6.56-6.56V417.38A72.44,72.44,0,0,1,0,347.9V216.62a72.29,72.29,0,0,1,72.21-72.21H334.77A72.29,72.29,0,0,1,407,216.62V347.9a72.29,72.29,0,0,1-72.21,72.21H114.31L63.72,470.69A6.56,6.56,0,0,1,59.08,472.62ZM72.21,157.54a59.15,59.15,0,0,0-59.08,59.08V347.9a59.23,59.23,0,0,0,47.26,57.89,6.56,6.56,0,0,1,5.26,6.43v38l41.31-41.31a6.56,6.56,0,0,1,4.64-1.92H334.77a59.15,59.15,0,0,0,59.08-59.08V216.62a59.15,59.15,0,0,0-59.08-59.08Z"/><path class="cls-2" d="M177.23,236.31H111.59a6.56,6.56,0,1,1,0-13.13h65.64a6.56,6.56,0,1,1,0,13.13Z"/><path class="cls-2" d="M216.62,288.82h-105a6.56,6.56,0,1,1,0-13.13h105a6.56,6.56,0,1,1,0,13.13Z"/><path class="cls-2" d="M295.38,341.33H111.59a6.56,6.56,0,1,1,0-13.13H295.38a6.56,6.56,0,0,1,0,13.13Z"/><circle class="cls-3" cx="387.28" cy="164.1" r="118.15"/><path class="cls-2" d="M387.28,288.82A124.72,124.72,0,1,1,512,164.1,124.86,124.86,0,0,1,387.28,288.82Zm0-236.31A111.59,111.59,0,1,0,498.87,164.1,111.71,111.71,0,0,0,387.28,52.51Z"/><circle class="cls-2" cx="361.03" cy="137.85" r="13.13"/><circle class="cls-2" cx="413.54" cy="137.85" r="13.13"/><path class="cls-2" d="M387.28,210.05a45.68,45.68,0,0,1-34.19-15.34,6.56,6.56,0,1,1,9.83-8.71,32.65,32.65,0,0,0,48.73,0,6.56,6.56,0,1,1,9.82,8.71A45.67,45.67,0,0,1,387.28,210.05Z"/></svg>